<svg width="49" height="19" viewBox="0 0 49 19" fill="none" xmlns="http://www.w3.org/2000/svg">
<g opacity="0.5" clip-path="url(#clip0_431_155)">
<path d="M40.9401 14.0772L41.2767 13.8799C41.3463 14.0656 41.4856 14.1817 41.7351 14.1817C41.973 14.1817 42.0542 14.083 42.0542 13.9728C42.0542 13.8277 41.9208 13.7697 41.6248 13.6826C41.3231 13.5956 41.0272 13.4679 41.0272 13.0908C41.0272 12.7136 41.3405 12.4989 41.6829 12.4989C42.0078 12.4989 42.2573 12.6672 42.3908 12.9457L42.06 13.1372C41.9904 12.9863 41.8801 12.8819 41.6771 12.8819C41.5146 12.8819 41.4159 12.9689 41.4159 13.0792C41.4159 13.201 41.4914 13.2649 41.7931 13.3577C42.1065 13.4563 42.443 13.5608 42.443 13.967C42.443 14.3383 42.1471 14.5646 41.7235 14.5646C41.3115 14.5704 41.0446 14.3732 40.9401 14.0772Z" fill="white"/>
<path d="M43.0755 13.4622V14.054C43.0755 14.2049 43.1857 14.2107 43.3946 14.1991V14.5298C42.8782 14.5879 42.7041 14.437 42.7041 14.054V13.4622H42.4546V13.1082H42.7041V12.8239L43.0697 12.7136V13.114H43.3888V13.468L43.0755 13.4622Z" fill="white"/>
<path d="M44.9266 13.1082V14.5298H44.5552V14.3731C44.4682 14.5008 44.3231 14.5704 44.1316 14.5704C43.8299 14.5704 43.5919 14.3615 43.5919 13.9844V13.114H43.9575V13.9437C43.9575 14.1352 44.0736 14.2339 44.2418 14.2339C44.4217 14.2339 44.5552 14.1294 44.5552 13.8799V13.114H44.9266V13.1082Z" fill="white"/>
<path d="M46.6499 12.5394V14.5297H46.2843V14.3615C46.1799 14.4949 46.029 14.5704 45.8259 14.5704C45.4429 14.5704 45.1296 14.2454 45.1296 13.8218C45.1296 13.3982 45.4429 13.0733 45.8259 13.0733C46.0348 13.0733 46.1857 13.1487 46.2843 13.2822V12.5452L46.6499 12.5394ZM46.2785 13.8218C46.2785 13.5839 46.1102 13.4214 45.8839 13.4214C45.6576 13.4214 45.4893 13.5839 45.4893 13.8218C45.4893 14.0597 45.6576 14.2222 45.8839 14.2222C46.1102 14.2222 46.2785 14.0597 46.2785 13.8218Z" fill="white"/>
<path d="M46.882 12.7136C46.882 12.5918 46.9864 12.4873 47.1083 12.4873C47.236 12.4873 47.3346 12.5918 47.3346 12.7136C47.3346 12.8355 47.2301 12.9399 47.1083 12.9399C46.9864 12.9399 46.882 12.8355 46.882 12.7136ZM46.9284 13.1082H47.294V14.5298H46.9284V13.1082Z" fill="white"/>
<path d="M47.4971 13.8219C47.4971 13.3983 47.8279 13.0734 48.2457 13.0734C48.6635 13.0734 49 13.3983 49 13.8219C49 14.2455 48.6635 14.5704 48.2457 14.5704C47.8279 14.5704 47.4971 14.2455 47.4971 13.8219ZM48.6344 13.8219C48.6344 13.5898 48.4662 13.4273 48.2457 13.4273C48.031 13.4273 47.8627 13.5898 47.8627 13.8219C47.8627 14.054 48.031 14.2165 48.2457 14.2165C48.4662 14.2107 48.6344 14.0482 48.6344 13.8219Z" fill="white"/>
<path d="M45.5707 16.8744V17.2515H44.4218V15.2612H44.8164V16.8744H45.5707Z" fill="white"/>
<path d="M47.1374 15.824V17.2456H46.7719V17.0774C46.6674 17.205 46.5166 17.2863 46.3077 17.2863C45.9305 17.2863 45.6172 16.9613 45.6172 16.5377C45.6172 16.1141 45.9305 15.7892 46.3077 15.7892C46.5166 15.7892 46.6674 15.8704 46.7719 15.9981V15.8298L47.1374 15.824ZM46.7719 16.5377C46.7719 16.2998 46.6036 16.1373 46.3773 16.1373C46.151 16.1373 45.9827 16.2998 45.9827 16.5377C45.9827 16.7756 46.151 16.9381 46.3773 16.9381C46.6036 16.9381 46.7719 16.7756 46.7719 16.5377Z" fill="white"/>
<path d="M48.9363 16.5378C48.9363 16.9613 48.623 17.2863 48.24 17.2863C48.0311 17.2863 47.8802 17.2109 47.7816 17.0774V17.2457H47.416V15.2554H47.7816V15.9923C47.886 15.8588 48.0369 15.7834 48.24 15.7834C48.623 15.7834 48.9363 16.1142 48.9363 16.5378ZM48.5707 16.5378C48.5707 16.2998 48.4025 16.1374 48.1762 16.1374C47.9499 16.1374 47.7816 16.2998 47.7816 16.5378C47.7816 16.7757 47.9499 16.9381 48.1762 16.9381C48.4025 16.9381 48.5707 16.7757 48.5707 16.5378Z" fill="white"/>
<path d="M44.2128 1.38669C44.0794 1.42731 43.8067 1.69423 43.5978 1.91473C43.1684 2.35573 42.7332 2.80834 42.2574 3.23773C41.5436 3.79479 40.8009 4.31122 40.0698 4.83926C38.7119 5.81991 37.3483 6.80055 35.9731 7.76379C35.9789 7.75219 35.9789 7.74639 35.9847 7.73478C36.0195 7.63033 35.4334 6.98624 35.3928 7.01525C34.9866 7.32859 34.5689 7.63613 34.1453 7.93207C34.064 7.9901 33.9016 8.11775 33.7043 8.26282C33.8841 7.9959 34.0872 7.74639 34.3251 7.53169C34.5224 7.35761 34.9866 7.06748 35.2071 6.92821C35.2362 6.9108 34.7545 6.21449 34.6733 6.26671C34.4992 6.37696 34.3309 6.48721 34.1685 6.59746C33.4896 7.03846 32.7352 7.39823 32.0331 7.80441C31.3078 8.2222 30.5766 8.64579 29.7933 8.94173C29.6018 9.01136 29.3117 9.13322 29.0389 9.16223C29.0563 9.1042 29.0796 9.04037 29.1028 8.98235C29.2014 8.75024 29.3523 8.54135 29.5148 8.34986C29.7236 8.10615 29.9616 7.87985 30.2111 7.67675C30.2401 7.65354 29.712 6.9108 29.6192 6.95723C28.7082 7.39242 27.8378 7.92627 26.9964 8.50073C27.0428 8.40789 27.0893 8.30924 27.1357 8.2164C27.1879 8.11195 26.5728 7.47366 26.5438 7.49687C25.7721 8.16998 24.9017 8.98235 23.9558 9.44656C24.0719 9.26668 24.2169 9.1042 24.3678 8.95333C24.7508 8.57616 25.2092 8.25121 25.685 7.97849C25.8533 7.89145 26.0274 7.80441 26.1956 7.71157C26.1956 7.71157 25.7198 6.93402 25.6038 6.99204C25.4065 7.08488 25.2092 7.18353 25.0119 7.29958C24.1125 7.76379 23.2131 8.228 22.3195 8.69802C21.9945 8.86629 21.6696 9.03457 21.3504 9.20285C21.5593 8.98815 21.7624 8.77926 21.9713 8.56456C22.0293 8.50653 21.4201 7.81021 21.3795 7.84503C21.1067 8.07133 20.6077 8.59937 20.2537 8.62839C20.0681 8.64579 19.5806 8.10615 19.3717 7.92627C19.3543 7.90886 19.3369 7.89725 19.3137 7.89145C18.3853 8.57036 17.4511 9.24927 16.5226 9.92818C16.5284 9.92238 16.5284 9.91077 16.5342 9.90497C16.5807 9.81212 15.983 9.15643 15.9424 9.18544C15.8437 9.25507 15.7509 9.33051 15.658 9.40594C15.5594 9.24927 15.2112 8.72123 15.0952 8.72703C14.3583 8.77925 13.6039 9.0984 12.9308 9.37693C10.5169 10.3634 8.28869 11.8198 6.18234 13.3459C4.44154 14.6051 2.77619 15.9629 1.15145 17.3672C1.63887 15.8933 2.42222 14.5123 3.2578 13.2125C4.95218 10.5897 7.05273 8.29183 9.21712 6.05201C10.8419 4.36925 12.6001 2.69809 14.6368 1.51435C14.8399 1.3983 15.1068 1.23002 15.3911 1.07915C15.1648 1.42151 14.2132 3.33638 13.4821 4.59555C13.4066 4.72901 13.8708 5.05396 13.8534 5.07717C14.3408 4.32863 15.9656 1.83349 16.2905 1.32866C16.3544 1.23002 16.5459 0.899269 16.6851 0.725189C16.6909 0.713584 16.6967 0.701979 16.6909 0.690374C16.5342 0.359623 16.3021 0.0172672 15.983 -0.000140674C15.6929 -0.0175486 15.3157 0.179741 15.0604 0.284189C13.3428 1.00952 11.8399 2.2803 10.4821 3.52206C7.96955 5.81991 5.62528 8.31504 3.64078 11.0771C2.49766 12.6728 1.41256 14.373 0.716247 16.2182C0.489944 16.8101 0.21722 17.518 0.240431 18.1737C0.246234 18.284 0.785879 18.9339 0.8323 18.8933C3.79745 16.2647 6.90767 13.7463 10.3254 11.727C11.161 11.2338 12.0256 10.7522 12.925 10.346C12.838 10.4504 12.7625 10.5549 12.6871 10.6651C12.3447 11.1932 12.4724 11.4717 12.8728 11.9127C12.9366 11.9823 13.0004 12.0345 13.0701 12.0694C13.0759 12.0752 13.0817 12.081 13.0817 12.0868C13.0817 12.081 13.0817 12.081 13.0759 12.0752C13.4995 12.3015 13.9753 11.9591 14.3989 11.6748C14.6368 11.5123 14.8631 11.3324 15.0836 11.1409C15.217 11.3556 15.6 11.7618 15.629 11.7386C16.807 10.8798 17.9849 10.021 19.157 9.16223C19.3601 9.01136 19.8359 8.63999 19.8882 8.59937C20.0681 8.70382 20.1899 8.86049 20.2944 8.95914C20.2479 9.01136 20.1957 9.06358 20.1435 9.11001C19.9578 9.3073 19.0004 10.0848 19.0642 10.3866C19.099 10.5491 19.4704 11.0365 19.6329 11.0829C19.8243 11.1409 20.3582 10.7405 20.5207 10.6593C21.2808 10.2705 22.0352 9.87595 22.7953 9.48718C22.8997 9.43495 23.01 9.37693 23.1144 9.3247C23.1028 9.43495 23.1086 9.5452 23.1493 9.64965C23.2073 9.79472 23.3756 10.0442 23.5496 10.2183C23.6657 10.3286 23.7643 10.375 23.7992 10.3866C24.3214 10.5549 25.186 9.78311 25.5922 9.46977C25.5748 9.50458 25.5574 9.5452 25.5399 9.58002C25.4935 9.67866 26.097 10.3286 26.1318 10.2995C26.8688 9.73669 27.6289 9.18544 28.4181 8.68641C28.4355 9.14482 28.9635 9.84114 29.4335 9.88176C29.8919 9.92238 30.42 9.66126 30.8204 9.48137C31.4238 9.20865 32.0099 8.8837 32.5844 8.55295C32.5727 8.62258 32.5669 8.69221 32.5844 8.75604C32.625 8.94173 32.9847 9.38853 33.1472 9.45816C33.5476 9.62644 34.2729 8.97654 34.5805 8.76765C34.6849 8.69802 34.7836 8.62258 34.8822 8.55295C34.8938 8.68641 35.4276 9.28989 35.4741 9.26087C36.5998 8.47752 37.7197 7.68256 38.8396 6.88759C38.8222 6.9108 38.799 6.93402 38.7816 6.95142C38.5437 7.22415 38.004 7.68836 37.9228 8.06553C37.9112 8.12356 37.9286 8.18739 37.9286 8.18739C37.9808 8.4485 38.2767 8.84889 38.4798 8.8779C38.6539 8.90111 42.2167 7.03266 42.9885 6.71351C42.9653 6.72512 42.7796 6.18547 42.6403 6.2377C42.6403 6.2377 39.7506 7.37502 39.5591 7.45625C39.7158 7.28217 39.8725 7.10229 40.0291 6.92821C40.9576 5.90115 41.9382 4.9263 42.9073 3.94566C43.4353 3.44083 43.9865 2.98242 44.503 2.49499C44.5842 2.41956 44.7641 2.21067 44.8163 2.10042C44.8685 1.97276 44.3463 1.34607 44.2128 1.38669ZM14.3931 10.4852C14.248 10.6129 13.7722 11.0307 13.3196 11.2802C13.453 11.1061 13.6097 10.9494 13.7084 10.845C14.2132 10.3286 14.8167 9.91657 15.4434 9.56841C15.0894 9.87015 14.747 10.1835 14.3931 10.4852Z" fill="white"/>
</g>
<defs>
<clipPath id="clip0_431_155">
<rect width="48.7596" height="18.8992" fill="white" transform="translate(0.240417)"/>
</clipPath>
</defs>
</svg>
