<svg width="18" height="18" viewBox="0 0 18 18" fill="none" xmlns="http://www.w3.org/2000/svg">
<path d="M4.00002 6.49996V0.666626H14V6.49996M4.00002 14H2.33335C1.89133 14 1.4674 13.8244 1.15484 13.5118C0.842282 13.1992 0.666687 12.7753 0.666687 12.3333V8.16663C0.666687 7.7246 0.842282 7.30068 1.15484 6.98812C1.4674 6.67555 1.89133 6.49996 2.33335 6.49996H15.6667C16.1087 6.49996 16.5326 6.67555 16.8452 6.98812C17.1578 7.30068 17.3334 7.7246 17.3334 8.16663V12.3333C17.3334 12.7753 17.1578 13.1992 16.8452 13.5118C16.5326 13.8244 16.1087 14 15.6667 14H14M4.00002 10.6666H14V17.3333H4.00002V10.6666Z" stroke="#ABAFB7" stroke-linecap="round" stroke-linejoin="round"/>
</svg>
