<svg width="210" height="26" viewBox="0 0 210 26" fill="none" xmlns="http://www.w3.org/2000/svg">
<g clip-path="url(#clip0_431_24)">
<path d="M135.494 4.1532H137.597V4.22573C137.815 4.262 138.032 4.29827 138.25 4.29827C138.685 4.44333 139.193 4.6972 139.592 4.87854V4.95107H133.136V4.87854H133.318C133.535 4.66094 133.753 4.66094 134.079 4.55214V4.4796H134.406V4.40707H134.732V4.33453C135.058 4.22573 135.312 4.3708 135.494 4.1532Z" fill="#488BBC"/>
<path d="M158.415 4.15345V4.98759H155.731C155.404 4.98759 154.897 5.06013 154.715 4.91506H154.897C155.368 4.11718 157.073 4.15345 158.415 4.15345Z" fill="#488BBC"/>
<path d="M164.217 4.15173C166.03 4.11546 167.662 4.15173 168.932 4.65947H169.186V4.732H169.44V4.80453C169.621 4.8408 169.766 4.87707 169.947 4.87707V4.9496H163.492C163.02 4.9496 161.461 5.0584 161.243 4.87707C161.715 4.8408 162.114 4.58693 162.513 4.44186C162.73 4.4056 162.948 4.36933 163.202 4.36933V4.2968C163.419 4.22426 163.999 4.33306 164.217 4.15173Z" fill="#488BBC"/>
<path d="M202.37 4.15339C203.458 4.11712 204.365 4.15339 205.127 4.40726H205.453V4.47979C205.634 4.55233 205.779 4.5886 205.961 4.66113V4.73366H206.142V4.8062C206.215 4.84246 206.323 4.87873 206.396 4.87873V4.95127H199.94V4.87873H200.122C200.303 4.66113 200.303 4.8062 200.557 4.6974V4.62486H200.811V4.55233H201.065V4.47979H201.319V4.40726H201.572V4.33473C201.79 4.22592 202.189 4.33473 202.37 4.15339Z" fill="#488BBC"/>
<path d="M141.731 4.51453H146.591V5.02227H141.731V4.51453Z" fill="#488BBC"/>
<path d="M148.079 4.51453H152.938V5.02227H148.079V4.51453Z" fill="#488BBC"/>
<path d="M174.698 4.51453H179.993V5.02227H174.698V4.51453Z" fill="#488BBC"/>
<path d="M185.579 4.51453H190.874V5.02227H185.579V4.51453Z" fill="#488BBC"/>
<path d="M192.904 4.51453H197.764V5.02227H192.904V4.51453Z" fill="#488BBC"/>
<path d="M141.732 6.11122H146.591V7.19923H130.997V7.1267C131.105 7.01789 131.033 7.1267 131.069 6.94536C131.142 6.87283 131.251 6.83656 131.323 6.76403V6.58269C131.432 6.51016 131.541 6.40135 131.649 6.32882C131.686 6.25629 131.722 6.14749 131.722 6.07495H140.934C141.115 6.47389 141.478 6.65522 141.587 7.09043H141.659C141.732 6.80029 141.732 6.43762 141.732 6.11122Z" fill="#488BBC"/>
<path d="M148.079 6.11023H152.938V7.05317H153.011V6.87184C153.229 6.65424 153.229 6.40037 153.519 6.18276V6.11023H158.306C158.27 6.4729 158.233 6.83557 158.233 7.19824H148.079V6.11023Z" fill="#488BBC"/>
<path d="M159.321 6.11023H171.724C171.978 6.54543 172.486 6.6905 172.74 7.19824H158.306V7.12571C158.414 7.01691 158.342 7.12571 158.378 6.94437C158.56 6.7993 158.705 6.65424 158.886 6.50917V6.43663H159.067C159.176 6.32783 159.249 6.21903 159.321 6.11023Z" fill="#488BBC"/>
<path d="M174.698 6.11023H179.993V7.19824H174.698V6.11023Z" fill="#488BBC"/>
<path d="M185.579 6.11023H190.874V7.19824H185.579V6.11023Z" fill="#488BBC"/>
<path d="M192.904 6.11023H197.764V7.19824H192.904V6.11023Z" fill="#488BBC"/>
<path d="M197.837 7.19923C197.909 6.76403 198.163 6.51016 198.417 6.25629C198.453 6.18375 198.49 6.14749 198.49 6.07495H207.883C208.028 6.25629 208.173 6.40135 208.318 6.58269H208.39V6.76403H208.463V6.94536H208.536C208.572 7.01789 208.608 7.1267 208.608 7.19923H197.837Z" fill="#488BBC"/>
<path d="M130.38 8.28796H137.162V8.3605H136.981C136.835 8.54183 136.799 8.43303 136.654 8.54183C136.582 8.61437 136.545 8.72317 136.473 8.7957H136.291C136.219 8.86824 136.183 8.97704 136.11 9.04957H136.038V9.23091C135.965 9.30344 135.856 9.33971 135.784 9.41224V9.48478H129.981C130.162 9.08584 130.271 8.6869 130.38 8.28796Z" fill="#488BBC"/>
<path d="M146.591 8.28796V9.48478H140.789V9.30344C140.607 9.12211 140.39 8.97704 140.208 8.7957V8.72317C139.991 8.5781 139.701 8.50557 139.556 8.28796C141.877 8.28796 144.234 8.28796 146.591 8.28796Z" fill="#488BBC"/>
<path d="M148.079 8.28796H163.601V8.3605H163.42C163.347 8.4693 163.166 8.75944 163.093 8.86824C163.021 8.94077 162.912 8.97704 162.839 9.04957C162.767 9.15837 162.767 9.41224 162.658 9.48478H157.037C157.109 9.12211 157.327 8.86824 157.472 8.54183H156.638V8.61437H156.057V8.6869C155.876 8.72317 155.658 8.75944 155.477 8.75944V8.83197C155.368 8.86824 155.259 8.9045 155.151 8.9045C155.114 8.97704 155.078 9.0133 155.078 9.08584H154.897C154.824 9.19464 154.715 9.30344 154.643 9.41224H148.115C148.079 9.08584 148.079 8.6869 148.079 8.28796Z" fill="#488BBC"/>
<path d="M174.01 9.48478H168.388C168.279 8.86824 167.808 8.6869 167.481 8.28796H173.538C173.719 8.6869 173.901 8.97704 174.01 9.48478Z" fill="#488BBC"/>
<path d="M174.698 8.28796H179.993V9.48478H174.698V8.28796Z" fill="#488BBC"/>
<path d="M185.579 8.28796H190.874V9.48478H185.579V8.28796Z" fill="#488BBC"/>
<path d="M192.904 8.28796H200.194V8.3605H200.013C199.868 8.50557 199.831 8.43303 199.686 8.54183V8.61437H199.505C199.287 8.9045 199.07 9.19464 198.816 9.44851H192.868C192.904 9.08584 192.904 8.6869 192.904 8.28796Z" fill="#488BBC"/>
<path d="M209.333 8.28796C209.37 8.72317 209.515 9.12211 209.66 9.48478H203.784V9.30344C203.531 9.15837 203.422 8.9045 203.204 8.72317V8.65063C202.987 8.50557 202.733 8.54183 202.515 8.32423C204.8 8.28796 207.085 8.28796 209.333 8.28796Z" fill="#488BBC"/>
<path d="M129.8 10.5712H135.348C135.348 11.0426 135.203 11.224 135.167 11.768H129.727C129.763 11.369 129.763 10.9701 129.8 10.5712Z" fill="#488BBC"/>
<path d="M141.369 10.5712H146.555V11.768H141.514C141.478 11.369 141.442 10.9701 141.369 10.5712Z" fill="#488BBC"/>
<path d="M148.079 10.5712H153.881V10.6437H153.809V10.8976H153.736V11.0789H153.664C153.627 11.2965 153.591 11.5141 153.591 11.768H148.151C148.079 11.369 148.079 10.9701 148.079 10.5712Z" fill="#488BBC"/>
<path d="M156.819 10.5712H162.259C162.223 10.8976 162.15 11.4416 162.077 11.768H156.71C156.746 11.2965 156.782 10.9338 156.819 10.5712Z" fill="#488BBC"/>
<path d="M168.896 10.5712H174.263C174.336 10.9701 174.372 11.369 174.444 11.768H169.004C168.968 11.369 168.932 10.9701 168.896 10.5712Z" fill="#488BBC"/>
<path d="M174.698 10.5712H179.993V11.768H174.698V10.5712Z" fill="#488BBC"/>
<path d="M185.578 10.5712H190.873V11.768H185.506C185.542 11.369 185.578 10.9701 185.578 10.5712Z" fill="#488BBC"/>
<path d="M192.904 10.5712H198.344V10.6437C198.199 10.825 198.127 11.4778 198.09 11.7317H192.904V10.5712Z" fill="#488BBC"/>
<path d="M204.401 10.5712H209.841C209.914 10.8976 209.914 11.3328 209.914 11.768H204.546C204.51 11.369 204.438 10.9701 204.401 10.5712Z" fill="#488BBC"/>
<path d="M129.727 12.8563H135.167C135.167 13.3278 135.348 13.6905 135.494 14.0531H129.8C129.763 13.6542 129.763 13.2553 129.727 12.8563Z" fill="#488BBC"/>
<path d="M141.297 12.8563H146.592V14.0531H140.97C141.079 13.6542 141.188 13.2553 141.297 12.8563Z" fill="#488BBC"/>
<path d="M148.079 12.8563H153.374V14.0531H148.079V12.8563Z" fill="#488BBC"/>
<path d="M156.746 12.8563H162.186C162.259 13.2553 162.295 13.6542 162.367 14.0531H157C156.927 13.9443 157 14.0531 156.927 13.9806C156.855 13.5817 156.782 13.219 156.746 12.8563Z" fill="#488BBC"/>
<path d="M168.968 12.8563H174.336C174.336 13.0739 174.191 13.8718 174.082 13.9443C173.864 14.1257 173.03 14.0169 172.667 14.0169H168.714C168.823 13.6542 168.896 13.2553 168.968 12.8563Z" fill="#488BBC"/>
<path d="M174.698 12.8563H180.066V12.9289H180.138C180.211 13.2915 180.247 13.6542 180.32 14.0169H174.698C174.698 13.6542 174.698 13.2553 174.698 12.8563Z" fill="#488BBC"/>
<path d="M185.433 12.8563H190.874V14.0531H185.071C185.18 13.6542 185.361 13.3641 185.433 12.8563Z" fill="#488BBC"/>
<path d="M192.904 12.8563H198.199C198.308 13.2553 198.417 13.6542 198.526 14.0531H192.904V12.8563Z" fill="#488BBC"/>
<path d="M204.401 12.8563H209.95V12.9289H209.878V13.5091H209.805C209.769 13.6905 209.732 13.8355 209.732 14.0169H204.184C204.22 13.6179 204.365 13.3641 204.401 12.8563Z" fill="#488BBC"/>
<path d="M130.235 15.1416H136.364C136.437 15.2141 136.473 15.3229 136.545 15.3955H136.727C136.763 15.468 136.799 15.5043 136.799 15.5768H136.981V15.6493H137.162V15.7219H137.488V15.7944H137.924V15.8669H138.504V15.7944H139.012V15.7219C139.193 15.6493 139.338 15.6131 139.519 15.5405V15.468H139.701C139.773 15.3955 139.809 15.2867 139.882 15.2141H140.063V15.1416H146.7V16.3384H130.67C130.525 15.8307 130.271 15.6493 130.235 15.1416Z" fill="#488BBC"/>
<path d="M148.078 15.1416H153.373V16.3384H148.078V15.1416Z" fill="#488BBC"/>
<path d="M163.02 15.1416V15.3229C163.093 15.3955 163.202 15.4317 163.274 15.5043V15.6856L163.456 15.8669H163.637V15.9395C163.782 16.0483 163.891 16.1571 164.145 16.1933V16.2659H157.834C157.798 16.1933 157.762 16.0845 157.762 16.012H157.689V15.8307H157.617C157.544 15.6131 157.435 15.3955 157.363 15.1416C159.212 15.1416 161.135 15.1416 163.02 15.1416Z" fill="#488BBC"/>
<path d="M173.248 16.2306H168.642C168.243 16.2306 167.155 16.3031 166.974 16.1581H167.155C167.445 15.9405 167.699 15.7229 167.989 15.469V15.2877H168.062C168.098 15.2151 168.134 15.1789 168.134 15.1063H173.828V15.1789C173.683 15.3239 173.756 15.3602 173.647 15.5053H173.574V15.6866C173.502 15.7229 173.465 15.7591 173.393 15.7591V15.9405H173.32C173.32 16.0855 173.284 16.1581 173.248 16.2306Z" fill="#488BBC"/>
<path d="M190.874 15.1416V16.2296H175.025C175.025 15.8307 174.916 15.4317 174.771 15.1416H180.973C181.263 15.6131 182.097 15.9395 182.75 15.7219H183.257V15.6493H183.439V15.5768H183.693V15.5043H183.874V15.4317H184.055C184.128 15.3592 184.164 15.2504 184.237 15.1779C186.413 15.1416 188.661 15.1416 190.874 15.1416Z" fill="#488BBC"/>
<path d="M192.904 15.1416H199.287C199.614 15.7219 200.774 16.4472 201.717 16.1571H202.225V16.0845C202.334 16.0483 202.443 16.012 202.552 16.012V15.9395H202.733C202.805 15.8669 202.842 15.7581 202.914 15.6856C202.987 15.6493 203.096 15.6131 203.168 15.6131C203.277 15.468 203.386 15.3229 203.494 15.1779H209.442V15.2504C209.261 15.6131 209.116 15.9757 208.935 16.3384H198.852C198.598 16.1208 197.655 16.2659 197.257 16.2659H192.904C192.904 15.8669 192.904 15.5043 192.904 15.1416Z" fill="#488BBC"/>
<path d="M158.668 17.3544H172.414V17.4269C172.196 17.6082 171.978 17.7533 171.725 17.9346C171.652 18.0072 171.616 18.116 171.543 18.1885H171.362C171.289 18.2973 171.181 18.4061 171.108 18.5149H159.865C159.793 18.4061 159.684 18.2973 159.611 18.1885H159.43C159.285 18.0072 159.14 17.8621 158.995 17.6808H158.814C158.814 17.572 158.741 17.4632 158.668 17.3544Z" fill="#488BBC"/>
<path d="M175.533 17.3544H185.76V17.4269C185.651 17.4994 185.542 17.6082 185.434 17.6808V17.8621C185.252 18.0434 185.035 18.1885 184.853 18.3698C184.817 18.4424 184.781 18.4786 184.781 18.5512H176.403C176.294 18.3336 176.077 18.261 175.968 18.116C175.823 17.8621 175.678 17.6082 175.533 17.3544Z" fill="#488BBC"/>
<path d="M186.086 17.3544H190.874V18.5512H186.086V17.3544Z" fill="#488BBC"/>
<path d="M192.905 17.3544C198.018 17.3906 203.132 17.4269 208.246 17.4269V17.4994C208.028 17.6445 207.992 17.8621 207.81 18.0797C207.665 18.1885 207.52 18.2973 207.375 18.4061C207.339 18.4786 207.303 18.5149 207.303 18.5874H206.541C206.323 18.4061 204.945 18.5149 204.51 18.5149H198.961C198.744 18.116 198.345 17.8621 198.2 17.4269H198.127V18.5149H192.832C192.905 18.116 192.905 17.7533 192.905 17.3544Z" fill="#488BBC"/>
<path d="M131.396 17.4264H141.224V17.4989C140.535 17.8979 140.607 18.5144 139.447 18.5144C139.229 18.6957 137.996 18.5869 137.597 18.5869H132.484C132.411 18.5144 132.375 18.4056 132.302 18.3331H132.121C132.085 18.2605 132.048 18.2243 132.048 18.1517C131.795 17.9341 131.577 17.7891 131.396 17.4264Z" fill="#488BBC"/>
<path d="M141.623 17.4264H146.591C146.555 17.7891 146.519 18.1517 146.519 18.5144H141.587C141.587 18.1517 141.587 17.7891 141.623 17.4264Z" fill="#488BBC"/>
<path d="M148.078 17.4264H153.373V18.5144H148.078V17.4264Z" fill="#488BBC"/>
<path d="M141.296 19.6395H146.41C146.337 20.0385 146.301 20.4374 146.229 20.8363H140.789C140.897 20.3649 141.188 20.111 141.296 19.6395Z" fill="#488BBC"/>
<path d="M162.186 19.6387H167.119C167.518 19.6387 168.678 19.5299 168.896 19.7112C168.424 19.7475 167.953 19.9288 167.554 20.0376H166.865V20.1102H166.031V20.1827H165.124V20.1102H164.217V20.0376H163.528V19.9651H163.093V19.8926H162.767V19.82C162.585 19.7838 162.368 19.7475 162.186 19.7475V19.6387Z" fill="#488BBC"/>
<path d="M178.035 19.6395H182.895V19.7121H182.714C182.569 19.8571 182.242 20.0022 182.025 20.0385H181.517V20.111H180.828C180.247 20.3286 178.398 20.0385 178.035 19.6395Z" fill="#488BBC"/>
<path d="M192.904 19.6395H198.199V20.8363H192.904V19.6395Z" fill="#488BBC"/>
<path d="M200.702 19.6395H205.489V19.7121H205.308V19.7846C205.127 19.8209 204.909 19.8571 204.728 19.8571V19.9297H204.401V20.0022H204.075C203.168 20.2923 202.262 20.111 201.464 19.8209C201.101 19.7483 200.92 19.8934 200.702 19.6395Z" fill="#488BBC"/>
<path d="M135.421 19.7104C135.82 19.7104 137.235 19.6379 137.452 19.7829C137.017 19.8192 135.603 19.8917 135.421 19.7104Z" fill="#488BBC"/>
<path d="M131.722 21.9227H134.079V21.9953H134.406V22.0678H134.732V22.1403C135.095 22.1766 135.457 22.2129 135.82 22.2129V22.2854C136.219 22.3942 137.234 22.2854 137.488 22.2129C137.815 22.1766 138.141 22.1403 138.504 22.1403V22.0678H138.83V21.9953H139.084V21.9227H145.793C145.757 22.3942 145.467 22.6843 145.358 23.1195H131.686C131.722 22.6843 131.722 22.2854 131.722 21.9227Z" fill="#488BBC"/>
<path d="M192.904 21.9227H198.199V23.1195H192.904V21.9227Z" fill="#488BBC"/>
<path d="M131.649 24.1727H144.415V24.2453C144.307 24.3178 144.307 24.3903 144.234 24.4266H144.053C143.98 24.4991 143.944 24.6079 143.871 24.6805H143.69C143.654 24.753 143.617 24.7893 143.617 24.8618H131.541C131.577 24.6442 131.613 24.4266 131.649 24.1727Z" fill="#488BBC"/>
<path d="M131.577 25.1141H143.146V25.1867H142.965C142.675 25.5131 140.752 25.368 140.1 25.368H134.659C133.644 25.368 132.447 25.4405 131.541 25.2955C131.577 25.2229 131.577 25.1867 131.577 25.1141Z" fill="#488BBC"/>
<path d="M36.0495 0.598511V6.90898C37.3551 5.31323 38.7332 4.33402 41.1994 4.37028C44.1733 4.37028 46.2405 5.82097 46.8208 8.93993C47.5098 7.38045 48.344 6.40124 49.5771 5.60336C52.2608 3.89881 56.8667 3.82628 59.4054 5.8935C60.3847 6.69138 61.1463 7.99699 61.5815 9.33887V4.66042H66.3687V7.45298C66.9853 6.2199 67.5293 5.20443 68.7623 4.66042C69.3064 4.40655 69.9229 4.22522 70.9746 4.37028L70.6845 8.6498C68.581 8.61353 67.7106 9.085 67.1666 10.7896C66.9853 11.4061 66.8764 12.349 66.8764 13.4733V19.6025H61.6177V13.7272C61.6177 13.7272 51.608 13.6909 51.608 13.7272C51.6443 14.0899 51.9344 14.7427 51.9707 14.8515C53.0587 16.7736 56.5403 16.8099 58.934 16.0845C59.5142 15.9032 60.0583 15.6131 60.6023 15.4317C60.6748 17.1363 60.6748 19.0222 60.6385 19.0222C59.9857 19.276 59.1516 19.4936 58.5713 19.6387C53.095 20.7267 49.0331 19.2398 46.9658 15.5768C46.7845 16.8099 46.9296 19.6025 46.9296 19.6025H41.7071C41.7071 19.6025 41.7071 12.5666 41.7071 14.7789C41.7071 13.0744 41.8159 11.1885 41.3082 9.99168C40.9455 9.15754 40.1114 8.57726 38.9146 8.72233C37.7903 8.8674 37.1375 9.37514 36.7023 10.2093V10.3181C36.6297 10.6082 36.4121 10.9709 36.3033 11.2973C36.0857 12.1314 36.0857 14.1624 36.0857 14.1624V19.6025H30.8633V13.7272C26.475 13.7635 25.4595 13.6909 20.9261 13.7272C21.1437 16.6286 24.7341 16.8824 27.4542 16.3384C28.2883 16.1571 29.1587 15.7581 29.8841 15.4317C29.8841 15.468 29.8841 19.131 29.8478 19.0947C28.5422 19.5662 27.2728 20.0014 24.3715 20.0377C23.0296 20.0739 20.2733 19.7475 18.3874 18.2243C17.4082 17.4264 16.6828 16.3384 16.2839 15.6856C15.7036 16.8824 15.0146 18.0067 14.0354 18.7683C11.6417 20.6179 8.59529 20.1102 7.25341 19.4574C5.58513 18.6232 5.07739 17.5715 4.78725 17.1V19.6025H0V0.634778H5.25872V6.69138C5.65766 6.25617 6.4918 5.24069 7.97875 4.80549C10.6625 4.04388 12.6572 4.51535 14.253 5.7847C15.4498 6.76391 15.8124 7.67059 16.3202 8.57726C16.9367 7.52552 17.5895 6.51004 18.605 5.85723C20.0194 4.91429 21.869 4.40655 23.7187 4.40655C25.5683 4.40655 27.2366 4.73296 28.8686 6.1111C29.7753 6.87271 30.3193 8.06952 30.8633 9.23007V0.634778H36.0495V0.598511ZM54.2192 7.59805C53.3488 7.63432 52.6598 8.06953 52.2971 8.57726C51.8619 9.12127 51.5355 9.88288 51.5718 10.6808H57.3382C57.3382 9.52021 56.903 8.50473 56.1777 8.03326C55.6337 7.74312 54.7995 7.59805 54.2192 7.59805ZM23.3197 7.67059C22.1954 7.77939 21.3976 8.57726 21.0712 9.48394C20.9261 9.84661 20.8536 10.2093 20.8536 10.717C23.1021 10.7533 24.7704 10.717 26.5475 10.717C26.5475 10.2818 26.475 9.99168 26.4024 9.66528C26.2211 8.93993 25.9309 8.541 25.4232 8.17833C24.9155 7.81566 24.2264 7.59805 23.3197 7.67059ZM8.05129 8.39593C3.95311 8.83113 4.46085 16.4835 8.59529 16.0845C12.6209 15.6856 12.5121 7.92446 8.05129 8.39593Z" fill="white"/>
<path d="M121.676 4.18829C121.676 4.18829 123.779 4.07949 124.94 4.80483C127.333 6.25551 127.805 7.70619 127.877 10.4625V19.5655C127.877 19.5655 122.691 19.6018 122.619 19.5655V13.5452C122.619 12.3846 122.691 11.1516 122.401 10.2449C121.785 8.2502 120.153 8.28647 118.992 8.6854C117.433 9.22941 117.034 11.0065 116.997 13.1463V19.5655H107.169C106.407 18.6951 106.407 17.8972 106.335 17.2082C105.682 18.0786 104.993 19.0941 103.977 19.6018C103.107 20.037 102.672 20.1821 101.366 20.2546C99.9518 20.2909 97.2681 19.5293 96.4702 17.8972V19.5655H91.2115V12.6748C91.2115 11.7681 91.2478 10.8614 91.0301 10.1361C90.8488 9.44701 90.4861 8.86674 89.7971 8.6854C88.5277 8.32273 87.4034 8.90301 86.932 10.1361C86.5693 11.1878 86.4968 12.711 86.4968 14.1617V19.5655H81.7095V11.478C81.7095 10.6438 81.5644 10.2086 81.3831 9.80968C81.0204 8.97554 80.15 8.39527 78.8807 8.6854C78.1916 8.83047 77.6476 9.30194 77.3212 9.84595C77.1761 10.0998 76.6321 11.1878 76.6321 12.9287V19.5655H71.4097V4.65976H76.1607C76.1607 4.65976 76.0881 6.58192 76.1607 7.30726C76.6321 6.54565 77.2487 5.82031 77.974 5.34884C79.6423 4.26082 82.6162 3.82562 84.5021 5.0587C85.2274 5.53017 85.7352 6.40058 86.0978 7.16219C86.6056 6.32805 87.2946 5.4939 88.1651 4.98616C90.5224 3.68055 94.4393 4.22456 95.5998 6.29178C96.0713 7.16219 96.3614 8.39527 96.3977 9.37448C96.3977 9.41075 96.4339 13.11 96.4339 13.0737C98.2473 10.8252 100.641 10.6438 101.656 10.4988C102.345 10.4262 103.325 10.535 103.869 10.4988C104.558 10.4625 105.174 10.2812 106.008 10.2086C106.008 8.86674 105.283 8.17767 104.268 7.88753C103.361 7.59739 100.496 7.41606 97.7758 8.83047C97.8121 8.83047 97.667 5.34884 97.667 5.34884C99.3353 4.7323 102.853 3.60802 106.879 4.69603C109.236 5.34884 110.832 7.41606 110.868 9.73715C110.905 12.0582 110.832 15.0321 110.832 15.9026C110.832 17.0268 111.013 18.0423 111.412 18.7676C111.485 18.8764 111.63 19.1303 111.666 19.1303V4.65976H116.49C116.49 4.65976 116.453 6.36431 116.49 7.19846C117.65 5.42137 119.101 4.40589 121.676 4.18829ZM106.117 12.8561C105.356 12.9649 105.573 13.11 104.304 13.2188C102.998 13.3276 102.164 13.2188 101.366 13.8353C100.532 14.4881 100.568 15.83 101.475 16.374C103.651 17.6434 105.827 15.6487 106.081 13.5815C106.117 13.2913 106.117 12.8561 106.117 12.8561Z" fill="white"/>
</g>
<defs>
<clipPath id="clip0_431_24">
<rect width="209.95" height="24.803" fill="white" transform="translate(0 0.598511)"/>
</clipPath>
</defs>
</svg>
