<svg width="18" height="19" viewBox="0 0 18 19" fill="none" xmlns="http://www.w3.org/2000/svg">
<path d="M17.3333 13.6V16.1C17.3343 16.3321 17.2867 16.5618 17.1938 16.7745C17.1008 16.9871 16.9644 17.178 16.7934 17.3349C16.6224 17.4918 16.4205 17.6113 16.2006 17.6856C15.9808 17.76 15.7478 17.7876 15.5167 17.7667C12.9524 17.4881 10.4892 16.6118 8.325 15.2084C6.31152 13.9289 4.60445 12.2219 3.325 10.2084C1.91665 8.03438 1.0402 5.5592 0.766667 2.98337C0.745842 2.75293 0.773229 2.52067 0.847084 2.30139C0.920938 2.08211 1.03964 1.88061 1.19564 1.70972C1.35163 1.53883 1.5415 1.4023 1.75316 1.30881C1.96481 1.21532 2.19362 1.16692 2.425 1.16671H4.925C5.32942 1.16273 5.72149 1.30594 6.02813 1.56965C6.33478 1.83336 6.53506 2.19958 6.59167 2.60004C6.69719 3.4001 6.89288 4.18565 7.175 4.94171C7.28712 5.23998 7.31139 5.56414 7.24492 5.87577C7.17846 6.18741 7.02405 6.47347 6.8 6.70004L5.74167 7.75837C6.92796 9.84466 8.65538 11.5721 10.7417 12.7584L11.8 11.7C12.0266 11.476 12.3126 11.3216 12.6243 11.2551C12.9359 11.1887 13.2601 11.2129 13.5583 11.325C14.3144 11.6072 15.0999 11.8029 15.9 11.9084C16.3048 11.9655 16.6745 12.1694 16.9388 12.4813C17.2031 12.7932 17.3435 13.1914 17.3333 13.6Z" stroke="#ABAFB7" stroke-linecap="round" stroke-linejoin="round"/>
</svg>
